# xmcd
#
# Track frame offsets:
#	150
#	4132
#	19185
#	30621
#	44653
#	53470
#	70224
#	82546
#	98322
#	108591
#	122568
#	137697
#	150438
#	161657
#
# Disc length: 2385 seconds
# Revision: 0
# Processed by: cddbd v1.5.1PL0 Copyright (c) Steve Scherf et al.
# Submitted via: cdrLabel 7.1
#
DISCID=9d094f0e
DTITLE=Kabt/Dole v dole
DYEAR=2001
DGENRE=Industrial
TTITLE0=Dole v dole
TTITLE1=Mayrau 
TTITLE2=Dole v dole
TTITLE3=Star Lou
TTITLE4=Cirkusovej stan
TTITLE5=Kalamity Jane
TTITLE6=Jednou ns to zabije
TTITLE7=Irsk hody 
TTITLE8=Nimrod Fbera
TTITLE9=Bahno
TTITLE10=Elvis  
TTITLE11=Frau Vogelrauch
TTITLE12=Shoel n dm
TTITLE13=Kdo si nechce hubu split
EXTD=
EXTT0=
EXTT1=
EXTT2=
EXTT3=
EXTT4=
EXTT5=
EXTT6=
EXTT7=
EXTT8=
EXTT9=
EXTT10=
EXTT11=
EXTT12=
EXTT13=
PLAYORDER=
